<!DOCTYPE svg PUBLIC "-//W3C//DTD SVG 20010904//EN" "http://www.w3.org/TR/2001/REC-SVG-20010904/DTD/svg10.dtd">
<svg version="1.0" xmlns="http://www.w3.org/2000/svg" width="32px" height="32px" viewBox="0 0 320 320" preserveAspectRatio="xMidYMid meet">
<g id="layer101" fill="#060606" stroke="none">
 <path d="M0 160 l0 -160 160 0 160 0 0 160 0 160 -160 0 -160 0 0 -160z"/>
 </g>
<g id="layer102" fill="#656565" stroke="none">
 <path d="M0 160 l0 -160 160 0 160 0 0 160 0 160 -160 0 -160 0 0 -160z m160 113 c0 -14 2 -15 9 -4 6 10 10 10 16 1 4 -6 2 -17 -5 -23 -9 -9 -15 -7 -26 7 -16 23 -18 36 -4 36 6 0 10 -8 10 -17z m-27 -49 c-2 -7 0 -15 6 -19 6 -3 11 -19 11 -34 0 -28 -26 -91 -38 -91 -10 0 -82 73 -82 84 0 6 21 32 47 58 40 41 49 46 54 31 3 -10 4 -23 2 -29z m67 -29 c-16 -56 -30 -67 -30 -23 0 32 27 85 37 74 3 -3 0 -26 -7 -51z m30 10 c0 -8 -4 -15 -10 -15 -5 0 -7 7 -4 15 4 8 8 15 10 15 2 0 4 -7 4 -15z m34 -26 c-5 -9 -34 -13 -34 -5 0 2 3 12 6 20 5 13 9 14 20 5 8 -6 11 -15 8 -20z m-44 -84 c-57 -58 -66 -63 -79 -50 -14 13 -10 20 36 63 32 30 61 48 79 50 27 2 25 -1 -36 -63z"/>
 </g>
<g id="layer103" fill="#999999" stroke="none">
 <path d="M0 160 l0 -160 160 0 160 0 0 160 0 160 -160 0 -160 0 0 -160z m171 111 c7 11 10 9 15 -8 4 -13 10 -20 15 -17 5 3 10 -7 10 -23 1 -17 3 -21 6 -10 2 9 9 15 14 11 5 -3 6 -11 3 -17 -4 -7 -3 -9 1 -4 10 8 45 -21 45 -37 0 -6 -27 -40 -60 -75 -59 -63 -61 -64 -80 -46 -15 14 -17 21 -9 32 6 7 18 13 25 13 8 0 19 11 24 24 5 13 18 27 30 31 12 4 20 13 18 23 -5 26 -27 25 -38 -2 -15 -41 -28 -30 -20 16 9 46 6 58 -14 58 -9 0 -13 -18 -12 -65 1 -49 -3 -68 -16 -82 -17 -16 -20 -15 -58 22 -22 21 -40 44 -40 50 0 6 22 32 49 59 33 33 50 44 54 34 3 -8 6 -5 6 8 1 30 15 40 19 13 3 -17 6 -19 13 -8z"/>
 <path d="M253 163 c4 -3 10 -3 14 0 3 4 0 7 -7 7 -7 0 -10 -3 -7 -7z"/>
 </g>
<g id="layer104" fill="#fcfcfc" stroke="none">
 <path d="M0 160 l0 -160 160 0 160 0 0 160 0 160 -160 0 -160 0 0 -160z m226 76 c35 -36 64 -68 64 -73 0 -12 -123 -133 -136 -133 -6 0 -17 7 -24 15 -11 14 -5 24 43 69 51 49 60 66 35 66 -5 0 -14 -11 -20 -25 -18 -40 -30 -29 -26 23 1 26 -1 49 -6 52 -5 3 -9 -25 -10 -62 -1 -50 -6 -72 -19 -85 -16 -17 -19 -15 -64 29 l-47 47 50 53 c27 29 55 52 61 52 7 -1 10 2 7 7 -7 11 4 29 18 29 6 0 39 -29 74 -64z"/>
 </g>

</svg>