<?xml version="1.0" encoding="utf-8"?>
<!DOCTYPE svg PUBLIC "-//W3C//DTD SVG 1.1//EN" "http://www.w3.org/Graphics/SVG/1.1/DTD/svg11.dtd">
<svg version="1.1" xmlns="http://www.w3.org/2000/svg" xmlns:xlink="http://www.w3.org/1999/xlink" x="0px" y="0px" width="150px" height="150px" viewBox="0 0 1500 1500" preserveAspectRatio="xMidYMid meet">
<g id="layer101">
 <path fill="#211f47" d="M0 750 l0 -750 750 0 750 0 0 750 0 750 -750 0 -750 0 0 -750z"/>
 </g>
<g id="layer102">
 <path fill="#2b263a" d="M695 1354 c-27 -19 -56 -43 -62 -51 -7 -9 -13 -13 -13 -7 0 5 -6 2 -13 -6 -7 -8 -24 -21 -39 -29 -15 -8 -38 -24 -50 -35 -12 -12 -26 -21 -30 -21 -4 0 -20 -12 -36 -26 -15 -14 -46 -36 -68 -47 -23 -12 -44 -28 -48 -37 -3 -9 -6 -162 -6 -340 0 -298 1 -323 18 -331 9 -4 21 -6 26 -5 4 1 14 -3 20 -9 7 -5 15 -8 18 -5 3 3 18 -1 34 -10 16 -8 25 -15 20 -15 -5 0 -3 -6 3 -13 6 -8 8 -17 4 -20 -3 -4 -1 -7 6 -7 7 0 9 -5 6 -10 -3 -6 -1 -10 5 -10 6 0 8 -5 5 -10 -3 -6 -1 -10 5 -10 6 0 9 -4 5 -9 -3 -5 -1 -12 5 -16 5 -3 10 -15 10 -26 0 -11 7 -22 15 -25 8 -4 12 -10 9 -15 -3 -5 0 -9 6 -9 6 0 9 -4 6 -9 -3 -4 3 -19 14 -31 11 -12 18 -26 15 -29 -2 -4 5 -12 15 -18 15 -10 19 -8 24 10 3 12 6 36 6 54 0 17 5 35 10 38 6 3 7 17 4 31 -3 13 -1 31 6 39 6 8 9 23 5 33 -11 36 16 48 101 46 57 -1 78 -5 76 -14 -1 -7 2 -18 9 -26 6 -8 8 -25 5 -40 -4 -14 -3 -31 3 -37 9 -11 10 -24 10 -105 0 -19 4 -31 10 -28 5 3 11 1 13 -5 3 -8 10 -6 21 5 9 10 15 22 12 27 -4 5 -1 9 6 9 7 0 10 3 6 6 -3 4 1 13 9 21 8 8 12 19 9 24 -4 5 -2 9 3 9 8 0 16 16 20 43 1 4 8 15 17 23 8 9 13 20 10 25 -4 5 -1 9 5 9 6 0 8 5 5 10 -3 6 -1 10 4 10 6 0 10 3 9 8 -1 4 3 17 10 28 6 12 9 24 6 27 -4 4 58 19 89 21 5 1 15 9 22 20 11 14 14 83 15 330 l0 311 -31 35 c-18 19 -35 35 -38 35 -3 0 -16 9 -29 20 -12 11 -27 20 -31 20 -5 0 -21 12 -35 28 -14 15 -32 27 -41 27 -8 0 -15 5 -15 10 0 6 -6 10 -14 10 -8 0 -17 7 -20 16 -3 8 -10 13 -15 10 -5 -3 -12 1 -15 9 -3 8 -11 14 -17 13 -7 -2 -17 6 -23 18 -6 11 -17 19 -23 17 -7 -3 -22 7 -34 21 -13 14 -25 26 -28 25 -3 0 -28 -16 -56 -35z m-158 -231 c-4 -3 -7 0 -7 7 0 7 3 10 7 7 3 -4 3 -10 0 -14z m420 -65 c-3 -8 -6 -5 -6 6 -1 11 2 17 5 13 3 -3 4 -12 1 -19z m-400 -115 c-4 -3 -7 0 -7 7 0 7 3 10 7 7 3 -4 3 -10 0 -14z m273 -167 c0 -3 -5 -8 -12 -12 -7 -4 -8 -3 -4 4 7 12 16 16 16 8z m55 -35 c-3 -6 -11 -11 -16 -11 -5 0 -4 6 3 14 14 16 24 13 13 -3z m-378 -23 c-3 -7 -5 -2 -5 12 0 14 2 19 5 13 2 -7 2 -19 0 -25z m330 15 c-4 -3 -10 -3 -14 0 -3 4 0 7 7 7 7 0 10 -3 7 -7z m150 -75 c-3 -8 -6 -5 -6 6 -1 11 2 17 5 13 3 -3 4 -12 1 -19z m-470 -45 c-4 -3 -7 0 -7 7 0 7 3 10 7 7 3 -4 3 -10 0 -14z m230 -109 c-3 -3 -12 -4 -19 -1 -8 3 -5 6 6 6 11 1 17 -2 13 -5z m30 -1 c-4 -3 -10 -3 -14 0 -3 4 0 7 7 7 7 0 10 -3 7 -7z m-140 -40 c-4 -3 -7 0 -7 7 0 7 3 10 7 7 3 -4 3 -10 0 -14z m393 3 c0 -3 -5 -8 -12 -12 -7 -4 -8 -3 -4 4 7 12 16 16 16 8z m-10 -30 c0 -3 -5 -8 -12 -12 -7 -4 -8 -3 -4 4 7 12 16 16 16 8z m-133 -138 c-3 -8 -6 -5 -6 6 -1 11 2 17 5 13 3 -3 4 -12 1 -19z"/>
 </g>
<g id="layer103">
 <path fill="#323050" d="M740 1380 c0 -5 -21 -23 -47 -41 -25 -18 -42 -26 -37 -18 4 8 -9 -3 -29 -24 -21 -21 -42 -35 -47 -32 -4 3 -11 -2 -14 -11 -3 -8 -10 -12 -16 -9 -5 3 -10 2 -10 -4 0 -5 -14 -20 -32 -32 -18 -13 -28 -17 -24 -8 5 7 -2 2 -15 -12 -33 -36 -85 -70 -94 -61 -5 4 -5 1 -1 -5 7 -12 -5 -18 -27 -14 -5 1 -6 -3 -2 -9 3 -5 1 -10 -4 -10 -8 0 -11 -104 -11 -330 0 -287 2 -330 15 -330 8 0 15 -4 15 -10 0 -5 6 -7 14 -4 8 3 17 1 20 -4 3 -6 15 -8 26 -5 11 3 20 0 20 -6 0 -6 7 -8 17 -4 12 5 15 2 10 -10 -4 -10 -2 -17 4 -17 6 0 8 -7 5 -16 -4 -10 -2 -13 6 -8 8 5 9 2 5 -9 -3 -10 -2 -17 4 -17 6 0 7 -5 4 -10 -3 -6 -1 -10 5 -10 6 0 8 -4 5 -10 -3 -5 -2 -10 3 -10 10 0 38 -60 34 -72 -1 -5 3 -8 9 -8 5 0 7 -4 4 -10 -3 -5 -1 -10 5 -10 6 0 9 -4 6 -9 -3 -5 1 -12 10 -15 10 -4 14 -12 10 -23 -4 -10 -4 -14 0 -10 4 4 13 -1 20 -11 11 -15 13 -8 20 46 3 34 10 62 15 62 4 0 5 16 2 35 -3 19 -1 35 4 35 5 0 7 16 5 35 -3 29 -1 35 14 35 16 0 17 2 4 11 -11 8 -8 9 15 4 64 -14 115 -17 115 -6 0 6 9 11 21 11 18 0 20 -4 15 -25 -4 -16 -2 -25 5 -25 8 0 9 -13 5 -41 -5 -30 -3 -39 5 -33 9 5 11 -3 6 -29 -4 -23 -2 -37 5 -37 7 0 8 -15 4 -41 -4 -26 -3 -38 4 -34 5 3 10 0 10 -7 1 -7 8 -1 16 15 8 15 19 27 25 27 6 0 7 5 4 10 -3 6 -1 10 5 10 6 0 8 5 5 10 -3 5 -1 10 5 10 6 0 8 4 5 10 -3 5 -1 10 4 10 6 0 10 3 9 8 -4 12 24 72 34 72 5 0 6 5 3 10 -3 6 -2 10 4 10 6 0 7 7 4 17 -4 11 -3 14 5 9 8 -5 10 -2 6 8 -3 9 -1 16 6 16 6 0 8 5 5 10 -3 6 -1 10 5 10 6 0 9 4 5 9 -5 9 48 25 80 26 33 0 35 22 35 347 l-1 323 -31 35 c-17 19 -27 28 -23 21 5 -9 -5 -5 -23 8 -18 12 -32 27 -32 32 0 6 -4 8 -8 5 -4 -2 -19 5 -32 16 -14 11 -19 16 -11 12 9 -4 12 -3 7 4 -4 6 -13 9 -20 6 -8 -3 -21 5 -30 18 -9 12 -16 18 -16 13 0 -6 -10 1 -21 15 -11 14 -18 19 -14 12 6 -11 3 -11 -13 -1 -12 7 -18 17 -15 23 3 5 2 7 -3 3 -12 -7 -116 67 -107 76 3 4 1 7 -5 7 -7 0 -12 -4 -12 -10z m55 -80 c3 -5 4 -10 1 -10 -3 0 -8 5 -11 10 -3 6 -4 10 -1 10 3 0 8 -4 11 -10z m70 -50 c3 -6 -1 -7 -9 -4 -18 7 -21 14 -7 14 6 0 13 -4 16 -10z m70 -50 c3 -5 4 -10 1 -10 -3 0 -8 5 -11 10 -3 6 -4 10 -1 10 3 0 8 -4 11 -10z m-375 -4 c0 -3 -5 -8 -12 -12 -7 -4 -8 -3 -4 4 7 12 16 16 16 8z m160 -26 c-8 -5 -19 -10 -25 -10 -5 0 -3 5 5 10 8 5 20 10 25 10 6 0 3 -5 -5 -10z m57 3 c-4 -3 -10 -3 -14 0 -3 4 0 7 7 7 7 0 10 -3 7 -7z m190 -25 c-3 -7 -5 -2 -5 12 0 14 2 19 5 13 2 -7 2 -19 0 -25z m-156 5 c13 -16 12 -17 -3 -4 -10 7 -18 15 -18 17 0 8 8 3 21 -13z m-274 -40 c-3 -10 -5 -4 -5 12 0 17 2 24 5 18 2 -7 2 -21 0 -30z m248 27 c4 -6 -6 -7 -27 -3 -44 8 -48 13 -10 13 17 0 34 -4 37 -10z m2 -47 c-4 -3 -10 -3 -14 0 -3 4 0 7 7 7 7 0 10 -3 7 -7z m77 -19 c3 -8 2 -12 -4 -9 -6 3 -10 10 -10 16 0 14 7 11 14 -7z m93 -16 c-3 -8 -6 -5 -6 6 -1 11 2 17 5 13 3 -3 4 -12 1 -19z m-324 -3 c-3 -9 -8 -14 -10 -11 -3 3 -2 9 2 15 9 16 15 13 8 -4z m142 -25 c8 0 17 -4 20 -10 4 -6 -1 -7 -12 -3 -29 10 -43 25 -36 37 5 7 9 5 11 -6 2 -10 10 -18 17 -18z m-228 -2 c-3 -8 -6 -5 -6 6 -1 11 2 17 5 13 3 -3 4 -12 1 -19z m330 -5 c-4 -3 -7 0 -7 7 0 7 3 10 7 7 3 -4 3 -10 0 -14z m-140 0 c-4 -3 -10 -3 -14 0 -3 4 0 7 7 7 7 0 10 -3 7 -7z m-120 -35 c-3 -7 -5 -2 -5 12 0 14 2 19 5 13 2 -7 2 -19 0 -25z m80 5 c-4 -3 -7 0 -7 7 0 7 3 10 7 7 3 -4 3 -10 0 -14z m250 -40 c-3 -10 -5 -2 -5 17 0 19 2 27 5 18 2 -10 2 -26 0 -35z m-150 20 c-4 -3 -7 0 -7 7 0 7 3 10 7 7 3 -4 3 -10 0 -14z m106 -53 c10 -13 10 -13 -5 -1 -11 8 -17 25 -17 45 l2 31 4 -30 c3 -16 10 -37 16 -45z m-346 3 c-3 -10 -5 -4 -5 12 0 17 2 24 5 18 2 -7 2 -21 0 -30z m43 -8 c-7 -9 -15 -13 -19 -10 -3 3 1 10 9 15 21 14 24 12 10 -5z m355 -15 c3 -5 4 -10 1 -10 -3 0 -8 5 -11 10 -3 6 -4 10 -1 10 3 0 8 -4 11 -10z m-405 -4 c0 -2 -8 -10 -17 -17 -16 -13 -17 -12 -4 4 13 16 21 21 21 13z m425 -26 c3 -5 4 -10 1 -10 -3 0 -8 5 -11 10 -3 6 -4 10 -1 10 3 0 8 -4 11 -10z m-468 -47 c-4 -3 -7 0 -7 7 0 7 3 10 7 7 3 -4 3 -10 0 -14z m490 -40 c-3 -10 -5 -2 -5 17 0 19 2 27 5 18 2 -10 2 -26 0 -35z m-112 -43 c-3 -6 -12 -10 -18 -10 -7 0 -6 4 3 10 12 7 12 12 2 22 -6 6 -12 17 -12 22 0 6 7 0 16 -12 8 -12 12 -27 9 -32z m-255 36 c0 -3 -5 -8 -12 -12 -7 -4 -8 -3 -4 4 7 12 16 16 16 8z m45 -6 c3 -5 4 -10 1 -10 -3 0 -8 5 -11 10 -3 6 -4 10 -1 10 3 0 8 -4 11 -10z m155 6 c0 -3 -5 -8 -12 -12 -7 -4 -8 -3 -4 4 7 12 16 16 16 8z m-323 -68 c-2 -13 -4 -5 -4 17 -1 22 1 32 4 23 2 -10 2 -28 0 -40z m338 22 c3 -6 -1 -7 -9 -4 -18 7 -21 14 -7 14 6 0 13 -4 16 -10z m32 -56 c-3 -3 -12 -4 -19 -1 -8 3 -5 6 6 6 11 1 17 -2 13 -5z m110 -26 c-3 -7 -5 -2 -5 12 0 14 2 19 5 13 2 -7 2 -19 0 -25z m-470 -35 c-4 -3 -7 0 -7 7 0 7 3 10 7 7 3 -4 3 -10 0 -14z m-20 -60 c-4 -3 -7 0 -7 7 0 7 3 10 7 7 3 -4 3 -10 0 -14z m510 -10 c-4 -3 -7 0 -7 7 0 7 3 10 7 7 3 -4 3 -10 0 -14z m-496 -30 c-12 -20 -14 -14 -5 12 4 9 9 14 11 11 3 -2 0 -13 -6 -23z m476 0 c-4 -3 -7 0 -7 7 0 7 3 10 7 7 3 -4 3 -10 0 -14z m30 0 c-4 -3 -7 0 -7 7 0 7 3 10 7 7 3 -4 3 -10 0 -14z m-540 -10 c-4 -3 -7 0 -7 7 0 7 3 10 7 7 3 -4 3 -10 0 -14z m350 10 c-4 -3 -10 -3 -14 0 -3 4 0 7 7 7 7 0 10 -3 7 -7z m114 -20 c-12 -20 -14 -14 -5 12 4 9 9 14 11 11 3 -2 0 -13 -6 -23z m-281 13 c0 -3 -5 -8 -12 -12 -7 -4 -8 -3 -4 4 7 12 16 16 16 8z m113 -3 c-13 -2 -35 -2 -50 0 -16 2 -5 4 22 4 28 0 40 -2 28 -4z m224 -25 c-3 -8 -6 -5 -6 6 -1 11 2 17 5 13 3 -3 4 -12 1 -19z m-520 -10 c-3 -8 -6 -5 -6 6 -1 11 2 17 5 13 3 -3 4 -12 1 -19z m30 -5 c-4 -3 -7 0 -7 7 0 7 3 10 7 7 3 -4 3 -10 0 -14z m130 -5 c-3 -8 -6 -5 -6 6 -1 11 2 17 5 13 3 -3 4 -12 1 -19z m290 -5 c-4 -3 -7 0 -7 7 0 7 3 10 7 7 3 -4 3 -10 0 -14z m103 13 c0 -3 -5 -8 -12 -12 -7 -4 -8 -3 -4 4 7 12 16 16 16 8z m-163 -38 c-3 -7 -5 -2 -5 12 0 14 2 19 5 13 2 -7 2 -19 0 -25z m50 -5 c-4 -3 -7 0 -7 7 0 7 3 10 7 7 3 -4 3 -10 0 -14z m103 13 c0 -3 -5 -8 -12 -12 -7 -4 -8 -3 -4 4 7 12 16 16 16 8z m-433 -23 c-4 -3 -7 0 -7 7 0 7 3 10 7 7 3 -4 3 -10 0 -14z m390 0 c-4 -3 -7 0 -7 7 0 7 3 10 7 7 3 -4 3 -10 0 -14z m-480 -10 c-4 -3 -7 0 -7 7 0 7 3 10 7 7 3 -4 3 -10 0 -14z m30 0 c-4 -3 -7 0 -7 7 0 7 3 10 7 7 3 -4 3 -10 0 -14z m100 -5 c-3 -8 -6 -5 -6 6 -1 11 2 17 5 13 3 -3 4 -12 1 -19z m370 -5 c-4 -3 -7 0 -7 7 0 7 3 10 7 7 3 -4 3 -10 0 -14z m-120 -35 c-3 -7 -5 -2 -5 12 0 14 2 19 5 13 2 -7 2 -19 0 -25z m30 -5 c-3 -10 -5 -4 -5 12 0 17 2 24 5 18 2 -7 2 -21 0 -30z m-377 -11 c0 -15 -2 -15 -10 -2 -13 20 -13 33 0 25 6 -3 10 -14 10 -23z m441 -9 c-12 -20 -14 -14 -5 12 4 9 9 14 11 11 3 -2 0 -13 -6 -23z m-354 -15 c-3 -7 -5 -2 -5 12 0 14 2 19 5 13 2 -7 2 -19 0 -25z m-30 5 c-4 -3 -7 0 -7 7 0 7 3 10 7 7 3 -4 3 -10 0 -14z m-32 -34 c9 -17 15 -33 13 -35 -3 -2 -12 12 -21 31 -21 43 -13 47 8 4z m332 -1 c-3 -7 -5 -2 -5 12 0 14 2 19 5 13 2 -7 2 -19 0 -25z m53 -18 c-11 -22 -23 -40 -25 -40 -3 0 4 18 15 40 11 22 23 40 25 40 3 0 -4 -18 -15 -40z m-333 -22 c-3 -7 -5 -2 -5 12 0 14 2 19 5 13 2 -7 2 -19 0 -25z m296 -18 c3 -11 1 -20 -4 -20 -5 0 -9 9 -9 20 0 11 2 20 4 20 2 0 6 -9 9 -20z m-318 0 c3 -5 4 -10 1 -10 -3 0 -8 5 -11 10 -3 6 -4 10 -1 10 3 0 8 -4 11 -10z"/>
 </g>
<g id="layer104">
 <path fill="#443c55" d="M545 1235 l-200 -142 -3 -331 -2 -331 37 -10 c21 -5 50 -13 66 -17 15 -3 27 -10 27 -16 0 -24 137 -295 145 -286 2 2 10 55 19 118 9 63 18 124 21 135 4 18 12 20 95 20 53 0 90 -4 90 -10 1 -31 38 -256 43 -261 3 -3 38 62 79 144 l73 150 58 16 57 16 0 328 c0 328 0 329 -22 349 -19 17 -348 250 -374 265 -5 3 -99 -59 -209 -137z m220 85 c3 -5 4 -10 1 -10 -3 0 -8 5 -11 10 -3 6 -4 10 -1 10 3 0 8 -4 11 -10z m36 -27 c13 -16 12 -17 -3 -4 -10 7 -18 15 -18 17 0 8 8 3 21 -13z m79 -59 c0 -3 -13 4 -30 16 -16 12 -30 24 -30 26 0 3 14 -4 30 -16 17 -12 30 -24 30 -26z m78 -50 c12 -12 12 -24 -3 -154 -2 -19 -4 -48 -4 -64 -1 -21 -5 -27 -16 -22 -18 7 -19 2 -2 -16 21 -22 59 -88 50 -88 -4 0 -2 -4 6 -9 10 -7 11 -29 4 -115 -6 -80 -5 -115 4 -137 7 -16 9 -37 6 -46 -5 -12 -3 -14 7 -8 10 6 12 4 7 -7 -3 -9 0 -21 6 -28 9 -10 9 -11 0 -6 -7 4 -13 3 -13 -3 0 -5 4 -11 10 -13 11 -4 -19 -70 -38 -81 -8 -5 -10 -16 -6 -29 4 -15 3 -18 -6 -13 -8 5 -11 4 -7 -3 10 -15 -3 -43 -16 -35 -6 3 -7 1 -3 -5 8 -14 -30 -92 -45 -92 -6 0 -9 12 -8 28 2 15 0 33 -5 40 -4 7 -6 22 -5 35 1 12 -1 30 -6 40 -4 9 -4 28 -1 42 4 16 2 25 -5 25 -7 0 -10 11 -7 28 2 16 -2 34 -9 41 -7 7 -11 16 -8 21 3 5 -9 5 -27 -1 -48 -13 -121 -12 -112 3 5 8 0 9 -17 4 -13 -4 -29 -8 -35 -8 -6 -1 -11 -6 -12 -12 -5 -62 -17 -116 -25 -116 -8 0 -8 -3 0 -11 11 -11 5 -59 -8 -59 -4 0 -5 -16 -2 -35 5 -28 2 -35 -11 -35 -10 0 -14 -4 -11 -10 3 -5 4 -10 1 -10 -11 0 -37 61 -30 72 4 6 3 8 -3 5 -10 -6 -48 62 -39 70 3 3 -1 12 -9 20 -18 17 -19 33 -4 33 5 0 7 -6 3 -12 -5 -9 -2 -9 9 1 15 12 17 11 18 -5 1 -11 1 -22 0 -26 0 -5 4 -8 10 -8 5 0 7 -4 4 -10 -3 -5 0 -10 7 -10 9 0 9 -3 -2 -10 -13 -8 -13 -10 2 -10 9 0 19 -6 21 -12 3 -8 6 -5 6 5 1 10 6 15 11 12 7 -4 9 2 5 17 -3 12 -7 39 -9 58 -3 19 -6 36 -7 38 -1 1 -3 7 -4 12 -1 6 -4 13 -5 18 -1 4 -2 10 -1 15 0 4 -3 7 -7 7 -5 0 -15 12 -22 28 l-13 27 -9 -28 c-5 -15 -14 -25 -19 -21 -5 3 -9 1 -9 -5 0 -5 4 -13 10 -16 17 -10 11 -25 -10 -25 -15 0 -20 7 -20 29 0 16 6 36 12 43 19 19 21 39 20 181 -1 103 2 127 13 127 8 0 17 4 20 10 4 6 -1 7 -11 3 -16 -6 -16 -3 3 28 22 37 37 119 22 119 -6 0 -9 19 -9 43 1 23 -3 58 -8 77 -7 28 -5 41 10 63 11 15 25 27 31 27 8 0 7 -3 -2 -9 -7 -5 -11 -17 -7 -27 3 -11 8 -48 11 -84 6 -63 15 -95 15 -51 0 12 16 44 35 72 19 28 35 55 35 60 0 12 55 39 80 39 35 0 22 -20 -26 -42 -53 -23 -48 -38 15 -45 46 -5 58 13 14 20 -27 4 -26 4 4 6 17 0 35 -3 38 -9 3 -5 13 -10 22 -10 12 0 13 3 4 13 -6 8 -9 16 -6 18 2 3 -5 6 -17 6 -26 2 -30 7 -22 26 8 21 44 13 66 -15 10 -13 18 -27 18 -31 0 -5 12 -23 26 -42 14 -19 29 -46 33 -62 6 -22 10 -8 16 61 7 86 7 90 -16 109 l-24 19 30 -18 c17 -10 36 -23 43 -30z m-443 -744 c3 -5 -3 -10 -14 -10 -12 0 -21 5 -21 10 0 6 6 10 14 10 8 0 18 -4 21 -10z"/>
 <path fill="#443c55" d="M786 1105 c4 -10 0 -15 -11 -15 -9 0 -14 -4 -11 -9 3 -5 -2 -12 -11 -15 -16 -6 -33 8 -33 28 0 5 -3 6 -7 3 -3 -4 -12 -2 -18 3 -8 7 -20 3 -38 -14 -14 -13 -29 -21 -33 -17 -4 3 -4 0 0 -7 5 -8 1 -19 -10 -28 -11 -9 -13 -13 -6 -9 8 4 12 -2 12 -19 0 -14 -5 -26 -11 -26 -7 0 -10 -12 -7 -30 3 -18 -1 -35 -9 -41 -7 -6 -13 -17 -13 -23 0 -7 -11 -23 -25 -36 -22 -21 -25 -30 -20 -65 3 -22 7 -78 10 -124 2 -62 8 -90 22 -110 11 -14 23 -35 27 -46 7 -18 10 -16 27 18 17 32 23 37 42 30 28 -10 134 -10 168 0 23 8 28 5 40 -25 8 -18 13 -37 11 -41 -1 -5 2 -6 8 -2 5 3 10 11 10 17 0 5 10 24 22 40 23 33 22 30 33 170 7 97 7 98 -25 153 -17 30 -36 55 -41 55 -6 0 -9 19 -8 43 2 24 0 48 -4 54 -4 6 -5 18 -1 26 3 8 -2 17 -10 20 -9 4 -16 14 -16 23 0 10 -3 15 -6 11 -4 -3 -19 0 -35 9 -25 13 -28 13 -23 -1z m-5 -78 c13 -3 19 -14 19 -31 0 -25 -3 -26 -51 -26 -45 0 -50 2 -39 15 11 13 10 14 -4 9 -25 -10 -19 4 17 35 21 20 33 25 35 16 2 -7 12 -15 23 -18z m16 -149 c-2 -13 -4 -5 -4 17 -1 22 1 32 4 23 2 -10 2 -28 0 -40z m-100 5 c-3 -10 -5 -4 -5 12 0 17 2 24 5 18 2 -7 2 -21 0 -30z m177 -94 c-2 -4 3 -9 11 -13 20 -7 19 -32 -2 -42 -25 -10 -90 -17 -81 -8 4 4 3 13 -2 20 -8 8 -6 17 6 28 9 10 19 14 23 11 3 -4 -3 -13 -13 -21 -18 -13 -18 -14 5 -22 29 -11 56 -5 63 15 3 8 1 11 -4 8 -6 -3 -13 1 -16 9 -3 9 -10 13 -15 10 -5 -3 -9 -1 -9 5 0 5 9 9 19 8 11 0 18 -4 15 -8z m-184 -18 c7 -14 7 -22 -2 -27 -6 -4 -8 -3 -5 3 4 5 -5 16 -19 24 -24 12 -28 12 -45 -10 -18 -22 -19 -22 -19 -3 0 36 72 46 90 13z m187 -97 c-3 -3 -12 -4 -19 -1 -8 3 -5 6 6 6 11 1 17 -2 13 -5z"/>
 <path fill="#443c55" d="M740 1031 c0 -6 4 -13 10 -16 6 -3 7 1 4 9 -7 18 -14 21 -14 7z"/>
 <path fill="#443c55" d="M774 1008 c-4 -7 -3 -8 4 -4 12 7 16 16 8 16 -3 0 -8 -5 -12 -12z"/>
 <path fill="#443c55" d="M953 520 c-3 -11 -9 -17 -14 -14 -5 3 -6 -2 -3 -10 3 -9 1 -16 -5 -16 -6 0 -8 -7 -5 -15 4 -8 1 -15 -5 -15 -6 0 -8 -7 -5 -15 4 -8 2 -15 -2 -15 -5 0 -8 -24 -8 -52 1 -29 4 -52 8 -50 3 1 10 2 14 2 5 0 9 6 9 13 0 6 13 39 29 73 25 51 28 66 21 97 -10 40 -26 48 -34 17z"/>
 <path fill="#443c55" d="M990 440 c0 -5 5 -10 11 -10 5 0 7 5 4 10 -3 6 -8 10 -11 10 -2 0 -4 -4 -4 -10z"/>
 </g>
<g id="layer105">
 <path fill="#3c3b63" d="M545 1234 l-200 -141 -3 -323 c-1 -205 1 -327 8 -335 5 -6 33 -17 62 -24 50 -11 54 -14 72 -59 31 -78 130 -258 133 -242 2 8 11 71 21 140 l18 125 92 3 c51 1 92 0 92 -3 0 -7 28 -203 36 -244 l6 -35 30 55 c17 30 50 97 74 149 24 53 52 98 61 101 10 4 37 12 61 18 l42 12 -2 332 -3 332 -115 82 c-63 45 -153 109 -200 141 l-85 58 -200 -142z m220 86 c3 -5 4 -10 1 -10 -3 0 -8 5 -11 10 -3 6 -4 10 -1 10 3 0 8 -4 11 -10z m36 -27 c13 -16 12 -17 -3 -4 -10 7 -18 15 -18 17 0 8 8 3 21 -13z m79 -59 c0 -3 -13 4 -30 16 -16 12 -30 24 -30 26 0 3 14 -4 30 -16 17 -12 30 -24 30 -26z m-223 19 c-4 -3 -7 0 -7 7 0 7 3 10 7 7 3 -4 3 -10 0 -14z m-17 -7 c0 -2 -7 -7 -16 -10 -8 -3 -12 -2 -9 4 6 10 25 14 25 6z m304 -49 c27 -19 28 -23 22 -71 -3 -28 -8 -87 -12 -132 -6 -76 -5 -83 20 -121 25 -38 26 -44 25 -174 -1 -158 0 -181 12 -174 5 3 11 -6 15 -20 7 -28 -21 -115 -37 -115 -6 0 -8 -4 -4 -9 7 -13 -56 -141 -67 -135 -4 3 -5 -3 -1 -12 4 -12 3 -15 -5 -10 -8 5 -10 2 -6 -8 3 -9 2 -16 -3 -16 -12 0 -47 256 -37 271 4 7 3 9 -4 5 -6 -3 -13 2 -16 12 -5 15 -18 17 -94 16 -49 0 -94 -4 -100 -8 -6 -4 -14 -33 -18 -66 -4 -40 -10 -58 -18 -53 -8 4 -8 3 0 -6 8 -8 9 -26 4 -49 -4 -20 -11 -59 -15 -87 l-7 -50 -24 48 c-14 26 -22 53 -18 59 4 6 3 8 -3 5 -12 -8 -46 61 -37 75 4 6 3 8 -3 5 -17 -11 -47 94 -39 136 4 21 10 36 14 33 11 -7 13 24 12 166 -1 118 0 129 23 165 23 35 45 129 28 119 -4 -3 -12 34 -17 81 -8 77 -7 89 9 110 10 12 24 23 30 23 8 0 7 -3 -2 -9 -7 -5 -11 -17 -7 -27 3 -11 8 -48 11 -84 6 -63 15 -95 15 -51 0 12 16 44 35 72 19 28 35 55 35 60 0 12 55 39 80 39 11 0 20 -6 20 -12 0 -9 3 -10 8 -2 16 24 81 -15 82 -49 0 -5 12 -23 26 -42 14 -19 29 -46 33 -62 6 -22 10 -8 16 61 7 86 7 90 -16 108 -28 23 -7 14 35 -15z"/>
 <path fill="#3c3b63" d="M700 1155 c-10 -13 -11 -18 -1 -28 10 -9 12 -9 9 3 -4 19 57 27 78 9 8 -6 18 -9 22 -5 12 13 -30 36 -64 36 -17 0 -37 -7 -44 -15z"/>
 <path fill="#3c3b63" d="M725 1130 c-4 -6 5 -10 19 -10 14 0 26 5 26 10 0 6 -9 10 -19 10 -11 0 -23 -4 -26 -10z"/>
 <path fill="#3c3b63" d="M640 1069 c-7 -12 -15 -48 -17 -80 -4 -39 -12 -64 -24 -75 -11 -10 -19 -22 -19 -29 0 -6 -11 -22 -25 -35 -22 -21 -25 -30 -20 -65 3 -22 7 -78 10 -124 2 -62 8 -90 22 -110 11 -14 23 -35 27 -46 7 -18 10 -16 27 18 17 32 23 37 42 30 28 -10 134 -10 168 0 23 8 28 5 40 -25 8 -18 13 -37 11 -41 -1 -5 2 -6 8 -2 5 3 10 11 10 17 0 5 10 24 22 40 23 33 22 30 33 169 7 104 2 125 -48 185 -16 19 -26 48 -30 82 -9 75 -26 106 -62 110 -19 3 -33 -2 -42 -14 -17 -23 -17 -44 1 -44 26 0 32 -25 26 -115 l-7 -90 -1 73 -2 72 -40 0 c-25 0 -40 -5 -41 -12 -1 -18 -17 23 -18 45 -1 10 10 22 24 27 20 8 23 13 16 32 -12 33 -75 38 -91 7z m57 -186 c-3 -10 -5 -4 -5 12 0 17 2 24 5 18 2 -7 2 -21 0 -30z m208 -3 c-3 -5 -12 -10 -20 -10 -7 0 -25 -13 -38 -30 -14 -16 -29 -30 -33 -30 -13 0 49 61 71 70 27 12 27 12 20 0z m-288 -7 c-4 -3 -10 -3 -14 0 -3 4 0 7 7 7 7 0 10 -3 7 -7z m34 -20 c13 -16 12 -17 -3 -4 -10 7 -18 15 -18 17 0 8 8 3 21 -13z m46 -20 c-4 -3 -7 0 -7 7 0 7 3 10 7 7 3 -4 3 -10 0 -14z m177 -45 c-3 -4 0 -8 6 -8 6 0 13 -7 17 -15 8 -22 -25 -44 -67 -45 l-35 -1 25 -20 c14 -12 33 -19 47 -16 12 2 20 0 17 -4 -10 -16 -50 -9 -73 12 -16 15 -19 24 -12 33 7 9 7 16 0 23 -7 7 -5 15 7 27 9 9 19 14 22 11 3 -3 0 -11 -6 -17 -17 -17 -15 -25 9 -31 15 -4 19 -2 15 9 -3 8 -1 14 4 14 6 0 10 -4 10 -10 0 -16 17 -12 24 6 3 8 2 12 -4 9 -6 -3 -13 1 -16 9 -3 9 -10 13 -15 10 -5 -3 -9 -1 -9 5 0 5 9 9 19 8 11 0 17 -5 15 -9z m-185 -17 c14 -26 1 -35 -16 -11 -18 26 -38 25 -57 -2 l-16 -22 0 21 c0 36 72 47 89 14z m-41 -31 c-7 -10 -17 -16 -22 -13 -6 4 -5 8 2 11 7 2 12 10 12 18 0 9 4 12 10 9 6 -4 5 -13 -2 -25z m29 -16 c-3 -3 -12 -4 -19 -1 -8 3 -5 6 6 6 11 1 17 -2 13 -5z m210 -21 c-4 -3 -7 0 -7 7 0 7 3 10 7 7 3 -4 3 -10 0 -14z m-187 3 c0 -3 -5 -8 -12 -12 -7 -4 -8 -3 -4 4 7 12 16 16 16 8z m-53 -33 c-4 -3 -10 -3 -14 0 -3 4 0 7 7 7 7 0 10 -3 7 -7z"/>
 <path fill="#3c3b63" d="M601 954 c0 -11 3 -14 6 -6 3 7 2 16 -1 19 -3 4 -6 -2 -5 -13z"/>
 <path fill="#3c3b63" d="M926 937 c3 -10 9 -15 12 -12 3 3 0 11 -7 18 -10 9 -11 8 -5 -6z"/>
 <path fill="#3c3b63" d="M524 848 c-4 -7 -3 -8 4 -4 12 7 16 16 8 16 -3 0 -8 -5 -12 -12z"/>
 <path fill="#3c3b63" d="M516 524 c-12 -31 -5 -65 28 -139 l33 -76 6 35 c6 38 -11 113 -37 164 -19 37 -22 38 -30 16z"/>
 <path fill="#3c3b63" d="M940 483 c-25 -68 -37 -148 -23 -156 16 -10 75 148 67 178 -11 43 -22 37 -44 -22z"/>
 <path fill="#3c3b63" d="M483 453 c4 -3 10 -3 14 0 3 4 0 7 -7 7 -7 0 -10 -3 -7 -7z"/>
 <path fill="#3c3b63" d="M990 440 c0 -5 5 -10 11 -10 5 0 7 5 4 10 -3 6 -8 10 -11 10 -2 0 -4 -4 -4 -10z"/>
 <path fill="#3c3b63" d="M498 423 c6 -2 9 -10 6 -15 -4 -7 -2 -8 5 -4 13 9 5 26 -12 25 -9 0 -8 -2 1 -6z"/>
 <path fill="#3c3b63" d="M590 340 c0 -7 3 -10 7 -7 3 4 3 10 0 14 -4 3 -7 0 -7 -7z"/>
 <path fill="#3c3b63" d="M583 233 c4 -3 10 -3 14 0 3 4 0 7 -7 7 -7 0 -10 -3 -7 -7z"/>
 </g>
<g id="layer106">
 <path fill="#535275" d="M545 1234 l-200 -141 -3 -323 c-1 -205 1 -327 8 -335 5 -6 33 -17 62 -24 50 -11 54 -14 72 -59 31 -78 130 -258 133 -242 2 8 11 71 21 140 l18 125 92 3 c51 1 92 0 92 -3 0 -7 28 -203 36 -244 l6 -35 30 55 c17 30 50 97 74 149 24 53 52 98 61 101 10 4 37 12 61 18 l42 12 -2 332 -3 332 -115 82 c-63 45 -153 109 -200 141 l-85 58 -200 -142z m364 -14 l63 -42 -6 -52 c-3 -28 -8 -87 -12 -131 -6 -77 -5 -83 21 -120 27 -40 27 -41 20 -155 -6 -104 -4 -121 15 -173 14 -37 19 -68 15 -85 -9 -36 -116 -262 -125 -262 -3 0 -14 59 -24 132 -25 183 -18 174 -125 172 -48 0 -93 -4 -99 -7 -5 -4 -13 -31 -17 -60 -7 -59 -10 -73 -25 -172 -6 -38 -12 -71 -14 -72 -7 -7 -119 242 -123 275 -3 24 2 55 15 88 18 44 20 66 15 166 -6 113 -5 115 22 156 l28 43 -14 120 c-16 131 -12 147 34 169 19 10 20 10 5 -3 -15 -12 -15 -21 -3 -98 7 -46 13 -74 14 -63 0 12 11 34 23 49 12 16 29 42 38 59 14 28 40 47 83 60 13 4 17 17 17 62 l0 56 48 -35 c26 -19 76 -54 111 -77z m-249 42 c0 -5 -12 -14 -27 -21 l-28 -12 25 21 c29 22 30 23 30 12z"/>
 <path fill="#535275" d="M702 1158 c-7 -7 -12 -16 -12 -22 0 -6 5 -5 12 2 15 15 70 16 86 0 6 -6 15 -8 19 -4 13 12 -28 36 -62 36 -17 0 -36 -5 -43 -12z"/>
 <path fill="#535275" d="M725 1130 c-4 -6 5 -10 19 -10 14 0 26 5 26 10 0 6 -9 10 -19 10 -11 0 -23 -4 -26 -10z"/>
 <path fill="#535275" d="M640 1069 c-7 -12 -15 -48 -17 -80 -4 -39 -12 -64 -24 -75 -11 -10 -19 -21 -19 -26 0 -5 -10 -22 -21 -38 -21 -27 -21 -36 -15 -152 5 -81 12 -128 21 -138 8 -8 19 -29 25 -45 l12 -30 20 38 c13 27 24 37 35 33 8 -3 32 -9 54 -12 l39 -7 0 217 c0 209 -1 216 -20 216 -11 0 -20 -6 -21 -12 -1 -18 -17 23 -18 45 -1 10 10 22 24 27 20 8 23 13 16 32 -12 33 -75 38 -91 7z m57 -186 c-3 -10 -5 -4 -5 12 0 17 2 24 5 18 2 -7 2 -21 0 -30z m-80 -10 c-4 -3 -10 -3 -14 0 -3 4 0 7 7 7 7 0 10 -3 7 -7z m34 -20 c13 -16 12 -17 -3 -4 -10 7 -18 15 -18 17 0 8 8 3 21 -13z m46 -20 c-4 -3 -7 0 -7 7 0 7 3 10 7 7 3 -4 3 -10 0 -14z m-15 -50 c17 -15 25 -43 12 -43 -3 0 -14 10 -24 23 -15 17 -22 20 -36 11 -24 -14 -29 -34 -10 -34 9 0 16 7 16 16 0 8 4 12 10 9 6 -4 5 -13 -2 -24 -9 -16 -16 -17 -35 -8 -28 13 -29 21 -3 47 24 24 47 25 72 3z m-7 -53 c3 -5 -1 -10 -10 -10 -9 0 -13 5 -10 10 3 6 8 10 10 10 2 0 7 -4 10 -10z m25 -24 c0 -3 -5 -8 -12 -12 -7 -4 -8 -3 -4 4 7 12 16 16 16 8z m-53 -33 c-4 -3 -10 -3 -14 0 -3 4 0 7 7 7 7 0 10 -3 7 -7z"/>
 <path fill="#535275" d="M771 1071 c-15 -28 -14 -35 11 -46 20 -9 21 -16 20 -115 l-1 -105 35 38 c19 20 40 37 47 37 22 0 28 12 13 29 -7 9 -16 40 -19 69 -9 77 -26 106 -64 110 -23 2 -34 -2 -42 -17z"/>
 <path fill="#535275" d="M822 768 c-18 -18 -15 -28 9 -28 11 0 17 5 14 10 -3 6 -2 10 4 10 5 0 11 -6 14 -12 2 -7 8 -10 12 -6 10 9 -13 38 -29 38 -7 0 -17 -5 -24 -12z"/>
 <path fill="#535275" d="M819 700 c35 -30 76 -25 64 6 -3 9 -20 14 -47 14 l-41 -1 24 -19z"/>
 <path fill="#535275" d="M516 524 c-12 -31 -5 -65 28 -139 l33 -76 6 35 c6 38 -11 113 -37 164 -19 37 -22 38 -30 16z"/>
 <path fill="#535275" d="M940 483 c-25 -68 -37 -148 -23 -156 16 -10 75 148 67 178 -11 43 -22 37 -44 -22z"/>
 </g>
<g id="layer107">
 <path fill="#c49a7b" d="M543 1232 l-193 -137 0 -332 c0 -307 1 -332 18 -337 9 -3 35 -10 57 -16 39 -10 41 -13 114 -163 l74 -152 21 143 20 142 92 0 93 0 6 -32 c3 -18 12 -80 20 -137 9 -58 17 -106 19 -108 1 -2 36 65 76 148 40 83 78 152 84 154 6 2 32 9 59 15 l47 13 -2 330 -3 331 -194 138 c-107 76 -199 138 -205 137 -6 0 -98 -62 -203 -137z m325 18 c72 -51 102 -78 102 -92 0 -12 -5 -71 -12 -132 l-11 -111 28 -40 c27 -40 27 -41 21 -153 -6 -101 -5 -119 15 -173 27 -73 24 -86 -57 -250 l-57 -114 -22 145 c-13 80 -25 152 -29 160 -9 21 -185 20 -196 -1 -4 -8 -16 -70 -25 -139 -10 -69 -21 -133 -24 -143 -9 -23 -129 222 -132 268 -2 17 7 55 18 85 18 48 20 67 13 155 -8 103 -4 127 31 174 21 28 21 29 5 157 l-16 129 22 15 c12 8 60 43 107 77 48 35 93 61 101 59 8 -2 61 -36 118 -76z"/>
 <path fill="#c49a7b" d="M704 1155 c-22 -17 -15 -19 20 -5 17 6 35 6 51 0 14 -5 25 -6 25 -1 0 23 -67 28 -96 6z"/>
 <path fill="#c49a7b" d="M735 1130 c-3 -5 3 -10 15 -10 12 0 18 5 15 10 -3 6 -10 10 -15 10 -5 0 -12 -4 -15 -10z"/>
 <path fill="#c49a7b" d="M646 1071 c-10 -11 -20 -43 -23 -77 -3 -33 -13 -69 -21 -81 -13 -21 -12 -23 4 -29 11 -4 34 -21 52 -37 l32 -31 2 60 c1 32 2 77 2 99 1 44 12 69 27 60 13 -9 11 29 -3 43 -18 18 -53 15 -72 -7z"/>
 <path fill="#c49a7b" d="M770 1071 c-14 -28 -13 -35 12 -46 20 -9 22 -17 21 -87 -1 -43 1 -87 4 -99 6 -20 7 -20 32 9 14 16 36 33 49 37 21 6 22 9 9 23 -8 10 -19 48 -25 85 -6 38 -16 75 -23 83 -17 21 -66 18 -79 -5z"/>
 <path fill="#c49a7b" d="M627 768 c-21 -11 -22 -28 -2 -28 8 0 15 8 15 18 1 16 1 16 14 0 16 -22 27 -23 20 -4 -8 20 -27 26 -47 14z"/>
 <path fill="#c49a7b" d="M826 764 c-20 -19 -20 -24 -2 -24 7 0 16 9 19 20 6 24 3 25 -17 4z"/>
 <path fill="#c49a7b" d="M860 756 c0 -9 5 -16 10 -16 6 0 10 4 10 9 0 6 -4 13 -10 16 -5 3 -10 -1 -10 -9z"/>
 <path fill="#c49a7b" d="M617 713 c-4 -3 -7 -12 -7 -20 0 -19 41 -15 70 7 l25 20 -41 0 c-22 0 -44 -3 -47 -7z"/>
 <path fill="#c49a7b" d="M819 700 c29 -25 64 -27 59 -2 -2 12 -14 18 -43 20 l-40 2 24 -20z"/>
 <path fill="#c49a7b" d="M515 507 c-5 -26 1 -53 25 -111 18 -42 34 -75 37 -72 20 19 -19 194 -47 211 -5 3 -12 -10 -15 -28z"/>
 <path fill="#c49a7b" d="M944 495 c-21 -51 -37 -133 -29 -153 5 -14 9 -12 22 13 9 17 24 53 34 81 28 79 4 132 -27 59z"/>
 </g>
<g id="layer108">
 <path fill="#d0ad96" d="M543 1232 l-193 -137 0 -332 c0 -307 1 -332 18 -337 9 -3 35 -10 57 -16 39 -10 41 -13 114 -163 l74 -152 21 143 20 142 92 0 93 0 6 -32 c3 -18 12 -80 20 -137 9 -58 17 -106 19 -108 1 -2 36 65 76 148 40 83 78 152 84 154 6 2 32 9 59 15 l47 13 -2 330 -3 331 -194 138 c-107 76 -199 138 -205 137 -6 0 -98 -62 -203 -137z m325 18 c72 -51 102 -78 102 -92 0 -12 -5 -71 -12 -132 l-11 -111 28 -40 c27 -40 27 -41 21 -153 -6 -101 -5 -119 15 -173 27 -73 24 -86 -57 -250 l-57 -114 -22 145 c-13 80 -25 152 -29 160 -9 21 -185 20 -196 -1 -4 -8 -16 -70 -25 -139 -10 -69 -21 -133 -24 -143 -9 -23 -129 222 -132 268 -2 17 7 55 18 85 18 48 20 67 13 155 -8 103 -4 127 31 174 21 28 21 29 5 157 l-16 129 22 15 c12 8 60 43 107 77 48 35 93 61 101 59 8 -2 61 -36 118 -76z"/>
 <path fill="#d0ad96" d="M704 1155 c-10 -8 -14 -15 -7 -15 6 0 15 5 19 11 3 6 19 9 35 7 15 -3 26 -1 23 4 -8 13 -49 9 -70 -7z"/>
 <path fill="#d0ad96" d="M735 1130 c-3 -5 3 -10 15 -10 12 0 18 5 15 10 -3 6 -10 10 -15 10 -5 0 -12 -4 -15 -10z"/>
 <path fill="#d0ad96" d="M646 1071 c-10 -11 -20 -43 -23 -77 -3 -33 -13 -69 -21 -81 -13 -21 -12 -23 4 -29 11 -4 34 -21 52 -37 l32 -31 2 60 c1 32 2 77 2 99 1 44 12 69 27 60 13 -9 11 29 -3 43 -18 18 -53 15 -72 -7z"/>
 <path fill="#d0ad96" d="M807 1083 c13 -2 30 -14 38 -26 8 -12 15 -16 15 -10 0 19 -30 43 -53 42 -22 -2 -22 -2 0 -6z"/>
 <path fill="#d0ad96" d="M767 1063 c-4 -3 -7 -13 -7 -21 0 -18 13 -7 16 13 2 17 1 18 -9 8z"/>
 <path fill="#d0ad96" d="M795 1030 c3 -5 8 -10 11 -10 3 0 2 5 -1 10 -3 6 -8 10 -11 10 -3 0 -2 -4 1 -10z"/>
 <path fill="#d0ad96" d="M861 1014 c0 -11 3 -14 6 -6 3 7 2 16 -1 19 -3 4 -6 -2 -5 -13z"/>
 <path fill="#d0ad96" d="M810 1000 c0 -7 3 -10 7 -7 3 4 3 10 0 14 -4 3 -7 0 -7 -7z"/>
 <path fill="#d0ad96" d="M803 940 c0 -25 2 -35 4 -22 2 12 2 32 0 45 -2 12 -4 2 -4 -23z"/>
 <path fill="#d0ad96" d="M870 933 c0 -5 6 -15 12 -21 10 -10 10 -15 -2 -22 -8 -5 -10 -10 -5 -10 27 0 33 16 14 39 -10 13 -19 19 -19 14z"/>
 <path fill="#d0ad96" d="M840 865 c-11 -13 -15 -13 -21 -3 -6 9 -9 4 -9 -14 0 -16 1 -28 3 -28 2 0 13 14 25 30 23 31 24 42 2 15z"/>
 <path fill="#d0ad96" d="M627 768 c-21 -11 -22 -28 -2 -28 8 0 15 8 15 18 1 16 1 16 14 0 16 -22 27 -23 20 -4 -8 20 -27 26 -47 14z"/>
 <path fill="#d0ad96" d="M826 764 c-20 -19 -20 -24 -2 -24 7 0 16 9 19 20 6 24 3 25 -17 4z"/>
 <path fill="#d0ad96" d="M860 756 c0 -9 5 -16 10 -16 6 0 10 4 10 9 0 6 -4 13 -10 16 -5 3 -10 -1 -10 -9z"/>
 <path fill="#d0ad96" d="M617 713 c-4 -3 -7 -12 -7 -20 0 -19 41 -15 70 7 l25 20 -41 0 c-22 0 -44 -3 -47 -7z"/>
 <path fill="#d0ad96" d="M810 706 c8 -8 28 -18 43 -22 25 -6 28 -4 25 12 -2 14 -13 20 -43 22 -36 3 -38 2 -25 -12z m60 -8 c0 -11 -12 -10 -30 2 -12 7 -10 9 8 7 12 0 22 -5 22 -9z"/>
 <path fill="#d0ad96" d="M515 507 c-5 -26 1 -53 25 -111 18 -42 34 -75 37 -72 20 19 -19 194 -47 211 -5 3 -12 -10 -15 -28z"/>
 <path fill="#d0ad96" d="M969 512 c6 -10 8 -30 5 -43 l-5 -24 11 23 c9 22 -1 62 -16 62 -2 0 0 -8 5 -18z"/>
 <path fill="#d0ad96" d="M936 475 c-3 -9 -6 -22 -5 -28 0 -7 5 -1 10 12 5 13 8 26 5 28 -2 2 -6 -3 -10 -12z"/>
 <path fill="#d0ad96" d="M956 425 c-9 -26 -7 -32 5 -12 6 10 9 21 6 23 -2 3 -7 -2 -11 -11z"/>
 <path fill="#d0ad96" d="M921 414 c0 -11 3 -14 6 -6 3 7 2 16 -1 19 -3 4 -6 -2 -5 -13z"/>
 <path fill="#d0ad96" d="M911 370 c0 -8 3 -21 8 -28 6 -11 10 -10 15 4 3 9 4 19 1 22 -3 3 -5 -1 -6 -9 0 -8 -4 -6 -9 6 -6 13 -9 15 -9 5z"/>
 </g>
<g id="layer109">
 <path fill="#d3b8ab" d="M543 1232 l-193 -137 0 -332 c0 -307 1 -332 18 -337 9 -3 35 -10 57 -16 39 -10 41 -13 114 -163 l74 -152 21 143 20 142 92 0 93 0 6 -32 c3 -18 12 -80 20 -137 9 -58 17 -106 19 -108 1 -2 36 65 76 148 40 83 78 152 84 154 6 2 32 9 59 15 l47 13 -2 330 -3 331 -194 138 c-107 76 -199 138 -205 137 -6 0 -98 -62 -203 -137z m325 18 c72 -51 102 -78 102 -92 0 -12 -5 -71 -12 -132 l-11 -111 28 -40 c27 -40 27 -41 21 -153 -6 -101 -5 -119 15 -173 27 -73 24 -86 -57 -250 l-57 -114 -22 145 c-13 80 -25 152 -29 160 -9 21 -185 20 -196 -1 -4 -8 -16 -70 -25 -139 -10 -69 -21 -133 -24 -143 -9 -23 -129 222 -132 268 -2 17 7 55 18 85 18 48 20 67 13 155 -8 103 -4 127 31 174 21 28 21 29 5 157 l-16 129 22 15 c12 8 60 43 107 77 48 35 93 61 101 59 8 -2 61 -36 118 -76z"/>
 <path fill="#d3b8ab" d="M695 1150 c-3 -5 -1 -10 4 -10 6 0 11 5 11 10 0 6 -2 10 -4 10 -3 0 -8 -4 -11 -10z"/>
 <path fill="#d3b8ab" d="M735 1130 c-3 -5 3 -10 15 -10 12 0 18 5 15 10 -3 6 -10 10 -15 10 -5 0 -12 -4 -15 -10z"/>
 <path fill="#d3b8ab" d="M647 1072 c-9 -10 -19 -45 -23 -77 -4 -33 -14 -70 -22 -82 -9 -15 -10 -23 -3 -23 6 0 29 -16 51 -36 l40 -36 2 58 c1 33 2 77 2 99 1 44 12 69 27 60 13 -9 11 29 -3 43 -18 18 -53 15 -71 -6z m63 -13 c0 -5 -9 -9 -21 -9 -11 0 -18 -4 -15 -9 9 -14 -4 -41 -20 -41 -16 0 -19 26 -4 35 6 4 8 10 5 15 -3 5 2 13 12 18 18 11 43 5 43 -9z m-34 -132 c2 -50 -1 -54 -20 -34 -31 31 -30 91 2 85 13 -2 17 -15 18 -51z m-49 -34 c-4 -3 -10 -3 -14 0 -3 4 0 7 7 7 7 0 10 -3 7 -7z"/>
 <path fill="#d3b8ab" d="M760 1040 c0 -7 3 -10 7 -7 3 4 3 10 0 14 -4 3 -7 0 -7 -7z"/>
 <path fill="#d3b8ab" d="M817 843 c-4 -3 -7 -11 -7 -17 0 -6 5 -5 12 2 6 6 9 14 7 17 -3 3 -9 2 -12 -2z"/>
 <path fill="#d3b8ab" d="M627 768 c-21 -11 -22 -28 -2 -28 8 0 15 8 15 18 1 16 1 16 14 0 16 -22 27 -23 20 -4 -8 20 -27 26 -47 14z"/>
 <path fill="#d3b8ab" d="M826 764 c-20 -19 -20 -24 -2 -24 7 0 16 9 19 20 6 24 3 25 -17 4z"/>
 <path fill="#d3b8ab" d="M860 756 c0 -9 5 -16 10 -16 6 0 10 4 10 9 0 6 -4 13 -10 16 -5 3 -10 -1 -10 -9z"/>
 <path fill="#d3b8ab" d="M617 713 c-4 -3 -7 -12 -7 -20 0 -19 41 -15 70 7 l25 20 -41 0 c-22 0 -44 -3 -47 -7z"/>
 <path fill="#d3b8ab" d="M810 705 c7 -8 18 -15 24 -14 7 0 6 2 -2 6 -6 2 -10 9 -6 14 3 5 -2 9 -12 9 -13 0 -14 -3 -4 -15z"/>
 <path fill="#d3b8ab" d="M853 713 c4 -3 10 -3 14 0 3 4 0 7 -7 7 -7 0 -10 -3 -7 -7z"/>
 <path fill="#d3b8ab" d="M863 683 c4 -3 10 -3 14 0 3 4 0 7 -7 7 -7 0 -10 -3 -7 -7z"/>
 <path fill="#d3b8ab" d="M515 507 c-5 -25 1 -53 26 -111 17 -42 34 -74 36 -72 20 19 -20 194 -47 211 -5 3 -12 -10 -15 -28z m33 -47 l12 -35 -20 23 c-10 13 -16 30 -13 38 7 18 7 18 21 -26z m22 -61 c0 -11 -4 -18 -10 -14 -5 3 -7 12 -3 20 7 21 13 19 13 -6z"/>
 <path fill="#d3b8ab" d="M965 520 c3 -5 8 -10 11 -10 3 0 2 5 -1 10 -3 6 -8 10 -11 10 -3 0 -2 -4 1 -10z"/>
 <path fill="#d3b8ab" d="M980 490 c0 -7 3 -10 7 -7 3 4 3 10 0 14 -4 3 -7 0 -7 -7z"/>
 <path fill="#d3b8ab" d="M930 460 c0 -7 3 -10 7 -7 3 4 3 10 0 14 -4 3 -7 0 -7 -7z"/>
 </g>
<g id="layer110">
 <path fill="#c2bec5" d="M543 1232 l-193 -137 0 -332 c0 -307 1 -332 18 -337 9 -3 35 -10 57 -16 39 -10 41 -13 114 -163 l74 -152 21 143 20 142 92 0 93 0 6 -32 c3 -18 12 -80 20 -137 9 -58 17 -106 19 -108 1 -2 36 65 76 148 40 83 78 152 84 154 6 2 32 9 59 15 l47 13 -2 330 -3 331 -194 138 c-107 76 -199 138 -205 137 -6 0 -98 -62 -203 -137z m325 18 c72 -51 102 -78 102 -92 0 -12 -5 -71 -12 -132 l-11 -111 28 -40 c27 -40 27 -41 21 -153 -6 -101 -5 -119 15 -173 27 -73 24 -86 -57 -250 l-57 -114 -22 145 c-13 80 -25 152 -29 160 -9 21 -185 20 -196 -1 -4 -8 -16 -70 -25 -139 -10 -69 -21 -133 -24 -143 -9 -23 -129 222 -132 268 -2 17 7 55 18 85 18 48 20 67 13 155 -8 103 -4 127 31 174 21 28 21 29 5 157 l-16 129 22 15 c12 8 60 43 107 77 48 35 93 61 101 59 8 -2 61 -36 118 -76z"/>
 <path fill="#c2bec5" d="M693 1143 c4 -3 10 -3 14 0 3 4 0 7 -7 7 -7 0 -10 -3 -7 -7z"/>
 <path fill="#c2bec5" d="M735 1130 c-3 -5 3 -10 15 -10 12 0 18 5 15 10 -3 6 -10 10 -15 10 -5 0 -12 -4 -15 -10z"/>
 <path fill="#c2bec5" d="M630 1050 c0 -7 3 -10 7 -7 3 4 3 10 0 14 -4 3 -7 0 -7 -7z"/>
 <path fill="#c2bec5" d="M692 955 c0 -16 2 -22 5 -12 2 9 2 23 0 30 -3 6 -5 -1 -5 -18z"/>
 <path fill="#c2bec5" d="M604 918 c-4 -7 -3 -8 4 -4 12 7 16 16 8 16 -3 0 -8 -5 -12 -12z"/>
 <path fill="#c2bec5" d="M655 850 c3 -5 8 -10 11 -10 3 0 2 5 -1 10 -3 6 -8 10 -11 10 -3 0 -2 -4 1 -10z"/>
 <path fill="#c2bec5" d="M810 829 c0 -5 5 -7 10 -4 6 3 10 8 10 11 0 2 -4 4 -10 4 -5 0 -10 -5 -10 -11z"/>
 <path fill="#c2bec5" d="M627 768 c-21 -11 -22 -28 -2 -28 8 0 15 8 15 18 1 16 1 16 14 0 16 -22 27 -23 20 -4 -8 20 -27 26 -47 14z"/>
 <path fill="#c2bec5" d="M826 764 c-20 -19 -20 -24 -2 -24 7 0 16 9 19 20 6 24 3 25 -17 4z"/>
 <path fill="#c2bec5" d="M860 756 c0 -9 5 -16 10 -16 6 0 10 4 10 9 0 6 -4 13 -10 16 -5 3 -10 -1 -10 -9z"/>
 <path fill="#c2bec5" d="M617 713 c-10 -9 -9 -33 1 -33 4 0 8 9 8 20 0 23 0 22 -9 13z"/>
 <path fill="#c2bec5" d="M680 709 c0 -5 5 -7 10 -4 6 3 10 8 10 11 0 2 -4 4 -10 4 -5 0 -10 -5 -10 -11z"/>
 <path fill="#c2bec5" d="M800 716 c0 -2 7 -9 15 -16 13 -11 14 -10 9 4 -5 14 -24 23 -24 12z"/>
 <path fill="#c2bec5" d="M980 490 c0 -7 3 -10 7 -7 3 4 3 10 0 14 -4 3 -7 0 -7 -7z"/>
 <path fill="#c2bec5" d="M566 337 c3 -10 9 -15 12 -12 3 3 0 11 -7 18 -10 9 -11 8 -5 -6z"/>
 </g>
<g id="layer111">
 <path fill="#d0d0d0" d="M675 1322 c-39 -27 -108 -76 -155 -108 -47 -33 -104 -74 -127 -90 l-42 -29 -1 -332 0 -332 38 -10 c20 -6 45 -11 54 -11 11 0 38 -45 88 -145 39 -80 74 -145 79 -145 4 0 15 58 26 130 l18 130 93 0 c109 0 96 17 119 -154 8 -60 17 -111 19 -113 5 -6 136 257 136 273 0 12 19 19 103 40 l27 6 0 329 0 328 -62 43 c-33 24 -80 57 -103 73 -104 75 -233 165 -237 165 -2 0 -35 -22 -73 -48z m145 -36 c30 -23 75 -54 99 -71 24 -16 45 -35 48 -42 3 -7 10 -10 15 -7 7 5 9 -5 6 -25 -2 -17 -1 -31 4 -31 4 0 -1 -17 -12 -37 -11 -20 -16 -41 -12 -47 4 -6 7 -18 6 -26 -1 -8 -2 -26 -3 -40 -1 -20 -3 -22 -11 -10 -5 8 -10 10 -10 4 0 -6 6 -17 14 -24 8 -6 13 -17 10 -24 -3 -8 2 -16 11 -20 9 -3 15 -14 14 -23 -2 -10 2 -28 9 -39 6 -12 9 -24 6 -27 -11 -11 -13 -212 -2 -218 6 -4 12 -18 13 -33 5 -45 28 -87 45 -80 33 14 50 16 50 6 0 -15 -52 -30 -76 -21 -18 6 -23 2 -32 -29 -15 -48 -97 -218 -110 -226 -9 -6 -32 115 -32 172 0 15 -7 40 -15 56 -9 16 -14 35 -11 42 3 7 -2 15 -10 18 -29 11 -53 6 -57 -11 -3 -13 -5 -12 -6 5 -1 18 -5 22 -19 18 -9 -3 -33 -2 -51 4 -49 14 -56 -2 -76 -155 -10 -71 -21 -136 -25 -144 -8 -15 -83 127 -120 227 -23 63 -23 64 -4 100 16 31 19 59 19 173 0 133 1 137 28 177 17 24 27 48 23 59 -5 18 -19 164 -20 214 -1 23 16 39 109 107 61 44 115 77 120 74 6 -3 35 -24 65 -46z m233 -166 c7 0 5 -5 -5 -10 -10 -7 -14 -17 -11 -31 4 -16 2 -20 -8 -17 -14 5 -31 66 -23 80 3 5 12 1 20 -7 9 -8 21 -15 27 -15z m37 -39 c0 -12 -20 -25 -27 -18 -7 7 6 27 18 27 5 0 9 -4 9 -9z m-93 -58 c-4 -3 -7 0 -7 7 0 7 3 10 7 7 3 -4 3 -10 0 -14z m43 -163 c0 -11 -7 -20 -15 -20 -8 0 -15 9 -15 20 0 11 7 20 15 20 8 0 15 -9 15 -20z m37 -57 c-4 -3 -7 0 -7 7 0 7 3 10 7 7 3 -4 3 -10 0 -14z m-40 -45 c-3 -8 -6 -5 -6 6 -1 11 2 17 5 13 3 -3 4 -12 1 -19z m-1 -96 c-12 -11 -18 7 -10 30 l8 23 4 -23 c2 -13 1 -26 -2 -30z m4 -63 c0 -11 -4 -18 -10 -14 -5 3 -7 12 -3 20 7 21 13 19 13 -6z m37 -96 c-4 -3 -7 0 -7 7 0 7 3 10 7 7 3 -4 3 -10 0 -14z m-267 -84 c0 -5 -7 -9 -15 -9 -8 0 -15 7 -15 15 0 9 6 12 15 9 8 -4 15 -10 15 -15z m37 -6 c-4 -3 -7 0 -7 7 0 7 3 10 7 7 3 -4 3 -10 0 -14z"/>
 <path fill="#d0d0d0" d="M738 1123 c6 -2 18 -2 25 0 6 3 1 5 -13 5 -14 0 -19 -2 -12 -5z"/>
 <path fill="#d0d0d0" d="M620 755 c0 -8 5 -15 10 -15 6 0 10 7 10 15 0 8 -4 15 -10 15 -5 0 -10 -7 -10 -15z"/>
 <path fill="#d0d0d0" d="M661 754 c0 -11 3 -14 6 -6 3 7 2 16 -1 19 -3 4 -6 -2 -5 -13z"/>
 <path fill="#d0d0d0" d="M826 761 c-4 -7 -5 -15 -2 -18 9 -9 19 4 14 18 -4 11 -6 11 -12 0z"/>
 <path fill="#d0d0d0" d="M861 754 c0 -11 3 -14 6 -6 3 7 2 16 -1 19 -3 4 -6 -2 -5 -13z"/>
 </g>
<g id="layer112">
 <path fill="#dbdbdb" d="M675 1322 c-39 -27 -108 -76 -155 -108 -47 -33 -104 -74 -127 -90 l-42 -29 -1 -332 0 -332 38 -10 c20 -6 45 -11 54 -11 11 0 38 -45 88 -145 39 -80 74 -145 79 -145 4 0 15 58 26 130 l18 130 93 0 c108 0 95 18 120 -155 8 -60 17 -111 19 -113 5 -5 135 259 135 274 0 12 19 19 103 40 l27 6 0 329 0 328 -62 43 c-33 24 -80 57 -103 73 -104 75 -233 165 -237 165 -2 0 -35 -22 -73 -48z m145 -36 c30 -23 74 -54 98 -70 24 -16 46 -36 51 -44 4 -7 10 -12 13 -10 4 1 36 -18 72 -44 l66 -48 0 -305 0 -304 -41 -12 c-32 -10 -42 -10 -48 0 -5 7 -12 -3 -20 -28 -6 -22 -35 -87 -63 -143 l-52 -103 -12 80 c-7 44 -15 103 -19 130 -4 28 -10 44 -12 38 -3 -9 -25 -13 -66 -12 -34 0 -56 3 -49 6 6 2 12 20 12 38 0 18 6 36 13 39 6 3 3 4 -8 1 -11 -3 -36 -1 -54 5 -49 14 -56 -2 -76 -160 -10 -74 -21 -139 -25 -143 -9 -10 -87 142 -120 231 -23 63 -23 64 -4 100 16 31 19 59 19 173 0 133 1 137 28 177 17 24 27 48 23 59 -5 18 -19 164 -20 214 -1 23 16 39 109 107 61 44 115 77 120 74 6 -3 35 -24 65 -46z"/>
 <path fill="#dbdbdb" d="M738 1123 c6 -2 18 -2 25 0 6 3 1 5 -13 5 -14 0 -19 -2 -12 -5z"/>
 <path fill="#dbdbdb" d="M620 755 c0 -8 5 -15 10 -15 6 0 10 7 10 15 0 8 -4 15 -10 15 -5 0 -10 -7 -10 -15z"/>
 <path fill="#dbdbdb" d="M661 754 c0 -11 3 -14 6 -6 3 7 2 16 -1 19 -3 4 -6 -2 -5 -13z"/>
 <path fill="#dbdbdb" d="M826 761 c-4 -7 -5 -15 -2 -18 9 -9 19 4 14 18 -4 11 -6 11 -12 0z"/>
 <path fill="#dbdbdb" d="M861 754 c0 -11 3 -14 6 -6 3 7 2 16 -1 19 -3 4 -6 -2 -5 -13z"/>
 <path fill="#dbdbdb" d="M1000 730 c0 -7 3 -10 7 -7 3 4 3 10 0 14 -4 3 -7 0 -7 -7z"/>
 </g>
<g id="layer113">
 <path fill="#dddce5" d="M669 1318 c-42 -29 -130 -91 -197 -138 l-121 -85 -1 -332 0 -332 38 -10 c20 -6 45 -11 54 -11 11 0 38 -45 88 -145 39 -80 74 -145 79 -145 4 0 15 58 26 130 l18 130 93 0 c108 0 95 18 120 -155 8 -60 17 -111 19 -113 5 -5 135 259 135 274 0 12 19 19 103 40 l27 6 0 329 0 328 -62 43 c-33 24 -80 57 -103 73 -103 74 -233 165 -237 165 -2 0 -37 -24 -79 -52z m151 -32 c30 -23 74 -54 98 -70 24 -16 46 -36 51 -44 4 -7 10 -12 13 -10 4 1 36 -18 72 -44 l66 -48 0 -304 0 -304 -45 -15 c-42 -15 -45 -15 -45 1 -1 9 -12 -11 -25 -46 -13 -34 -44 -100 -67 -145 l-43 -82 -12 80 c-6 44 -14 103 -18 130 -4 28 -10 44 -12 38 -3 -9 -34 -13 -104 -13 l-99 0 0 35 c0 22 6 37 17 44 10 5 14 13 10 17 -18 18 -36 -41 -52 -166 -9 -74 -19 -142 -21 -150 -6 -16 -91 147 -120 228 -17 50 -34 68 -34 37 0 -18 -7 -18 -48 -4 l-31 11 0 303 0 303 187 135 c103 74 192 132 197 129 6 -3 35 -24 65 -46z"/>
 <path fill="#dddce5" d="M522 1105 c0 -16 2 -22 5 -12 2 9 2 23 0 30 -3 6 -5 -1 -5 -18z"/>
 <path fill="#dddce5" d="M738 1123 c6 -2 18 -2 25 0 6 3 1 5 -13 5 -14 0 -19 -2 -12 -5z"/>
 <path fill="#dddce5" d="M533 990 c0 -25 2 -35 4 -22 2 12 2 32 0 45 -2 12 -4 2 -4 -23z"/>
 <path fill="#dddce5" d="M532 912 c-11 -25 -11 -25 4 -10 9 9 15 21 13 27 -2 6 -10 -2 -17 -17z"/>
 <path fill="#dddce5" d="M493 865 c-9 -25 4 -29 17 -6 7 15 7 21 0 21 -6 0 -13 -7 -17 -15z"/>
 <path fill="#dddce5" d="M482 810 c0 -14 2 -19 5 -12 2 6 2 18 0 25 -3 6 -5 1 -5 -13z"/>
 <path fill="#dddce5" d="M620 755 c0 -8 5 -15 10 -15 6 0 10 7 10 15 0 8 -4 15 -10 15 -5 0 -10 -7 -10 -15z"/>
 <path fill="#dddce5" d="M661 754 c0 -11 3 -14 6 -6 3 7 2 16 -1 19 -3 4 -6 -2 -5 -13z"/>
 <path fill="#dddce5" d="M826 761 c-4 -7 -5 -15 -2 -18 9 -9 19 4 14 18 -4 11 -6 11 -12 0z"/>
 <path fill="#dddce5" d="M861 754 c0 -11 3 -14 6 -6 3 7 2 16 -1 19 -3 4 -6 -2 -5 -13z"/>
 <path fill="#dddce5" d="M1000 730 c0 -7 3 -10 7 -7 3 4 3 10 0 14 -4 3 -7 0 -7 -7z"/>
 <path fill="#dddce5" d="M493 655 c0 -38 2 -53 4 -32 2 20 2 52 0 70 -2 17 -4 1 -4 -38z"/>
 <path fill="#dddce5" d="M474 556 c-3 -14 -10 -26 -15 -26 -5 0 -9 -12 -8 -27 0 -24 3 -21 20 21 11 27 18 51 15 53 -3 3 -8 -6 -12 -21z"/>
 <path fill="#dddce5" d="M698 493 c7 -3 16 -2 19 1 4 3 -2 6 -13 5 -11 0 -14 -3 -6 -6z"/>
 <path fill="#dddce5" d="M403 463 c4 -3 10 -3 14 0 3 4 0 7 -7 7 -7 0 -10 -3 -7 -7z"/>
 </g>
<g id="layer114">
 <path fill="#f9f9fa" d="M665 1315 c-44 -30 -132 -92 -195 -137 l-115 -83 -3 -332 -2 -332 37 -10 c21 -6 46 -11 55 -11 12 0 38 -44 88 -145 67 -134 90 -164 90 -114 0 11 7 67 16 125 l17 104 93 0 c80 0 93 -2 98 -17 6 -21 36 -220 36 -242 0 -21 69 104 111 202 32 73 36 78 74 88 22 6 50 15 63 20 l22 9 0 319 c0 254 -3 322 -13 333 -8 7 -42 34 -76 58 -34 25 -81 59 -104 76 -61 44 -205 144 -209 144 -2 0 -39 -25 -83 -55z m150 -24 c28 -20 52 -39 53 -43 2 -5 9 -8 16 -8 7 0 31 -17 53 -37 23 -21 43 -38 46 -38 3 0 35 -21 71 -47 l66 -48 0 -304 0 -304 -45 -15 c-42 -15 -45 -15 -45 1 -1 9 -9 -5 -19 -33 -21 -59 -111 -239 -116 -233 -2 2 -9 44 -15 93 -18 150 -4 135 -125 135 -73 0 -105 4 -105 12 0 15 -13 1 -16 -17 -7 -48 -13 -98 -20 -153 -3 -34 -10 -64 -13 -67 -7 -4 -103 187 -115 228 -3 9 -11 19 -18 21 -7 2 -32 9 -56 15 l-42 12 0 303 0 304 188 135 c103 74 192 132 197 129 6 -3 33 -21 60 -41z"/>
 <path fill="#f9f9fa" d="M738 1123 c7 -3 16 -2 19 1 4 3 -2 6 -13 5 -11 0 -14 -3 -6 -6z"/>
 <path fill="#f9f9fa" d="M620 760 c0 -7 3 -10 7 -7 3 4 3 10 0 14 -4 3 -7 0 -7 -7z"/>
 <path fill="#f9f9fa" d="M825 760 c-3 -5 -1 -10 4 -10 6 0 11 5 11 10 0 6 -2 10 -4 10 -3 0 -8 -4 -11 -10z"/>
 </g>

</svg>